G04 EAGLE Gerber RS-274X export*
G75*
%MOMM*%
%FSLAX34Y34*%
%LPD*%
%INTop Copper*%
%IPPOS*%
%AMOC8*
5,1,8,0,0,1.08239X$1,22.5*%
G01*
G04 Define Apertures*
%ADD10R,0.400000X0.200000*%
%ADD11R,0.560000X0.560000*%
%ADD12R,0.560000X0.560000*%
%ADD13R,3.000000X0.300000*%
%ADD14R,0.300000X3.000000*%
%ADD15C,0.604000*%
%ADD16C,0.152400*%
D10*
X64272Y53008D03*
X64272Y64408D03*
X50872Y53008D03*
X50872Y64408D03*
D11*
X57572Y58708D03*
D10*
G36*
X33519Y14750D02*
X35518Y11286D01*
X33785Y10286D01*
X31786Y13750D01*
X33519Y14750D01*
G37*
G36*
X43391Y20450D02*
X45390Y16986D01*
X43657Y15986D01*
X41658Y19450D01*
X43391Y20450D01*
G37*
G36*
X26819Y26354D02*
X28818Y22890D01*
X27085Y21890D01*
X25086Y25354D01*
X26819Y26354D01*
G37*
G36*
X36691Y32054D02*
X38690Y28590D01*
X36957Y27590D01*
X34958Y31054D01*
X36691Y32054D01*
G37*
D12*
G36*
X39062Y20146D02*
X34214Y17346D01*
X31414Y22194D01*
X36262Y24994D01*
X39062Y20146D01*
G37*
D10*
G36*
X86182Y23018D02*
X88181Y26482D01*
X89914Y25482D01*
X87915Y22018D01*
X86182Y23018D01*
G37*
G36*
X76310Y28718D02*
X78309Y32182D01*
X80042Y31182D01*
X78043Y27718D01*
X76310Y28718D01*
G37*
G36*
X79482Y11414D02*
X81481Y14878D01*
X83214Y13878D01*
X81215Y10414D01*
X79482Y11414D01*
G37*
G36*
X69610Y17114D02*
X71609Y20578D01*
X73342Y19578D01*
X71343Y16114D01*
X69610Y17114D01*
G37*
D12*
G36*
X78738Y25122D02*
X83586Y22322D01*
X80786Y17474D01*
X75938Y20274D01*
X78738Y25122D01*
G37*
D13*
G36*
X516454Y305117D02*
X490474Y290118D01*
X488974Y292717D01*
X514954Y307716D01*
X516454Y305117D01*
G37*
G36*
X518954Y300787D02*
X492974Y285788D01*
X491474Y288387D01*
X517454Y303386D01*
X518954Y300787D01*
G37*
G36*
X521454Y296457D02*
X495474Y281458D01*
X493974Y284057D01*
X519954Y299056D01*
X521454Y296457D01*
G37*
G36*
X523954Y292127D02*
X497974Y277128D01*
X496474Y279727D01*
X522454Y294726D01*
X523954Y292127D01*
G37*
D14*
X65123Y-485000D03*
X60123Y-485000D03*
X55123Y-485000D03*
X50123Y-485000D03*
D15*
X31400Y35625D03*
D16*
X26400Y30625D01*
X26400Y24674D01*
X26952Y24122D01*
D15*
X67920Y7917D03*
D16*
X76620Y7917D02*
X81348Y12646D01*
X76620Y7917D02*
X67920Y7917D01*
X50872Y53008D02*
X49598Y54282D01*
X39896Y54282D01*
X31400Y45786D01*
X31400Y35625D01*
X65123Y5120D02*
X65123Y-485000D01*
X65123Y5120D02*
X67920Y7917D01*
X82176Y33951D02*
X82176Y37877D01*
X82176Y33951D02*
X78176Y29950D01*
X82176Y37877D02*
X82330Y38031D01*
X78762Y22298D02*
X79762Y21298D01*
X35238Y21170D02*
X35238Y20505D01*
X37524Y18218D02*
X43524Y18218D01*
X57572Y58708D02*
X58572Y58708D01*
X64272Y64408D01*
X43524Y18218D02*
X43524Y17285D01*
X64272Y64408D02*
X66272Y64408D01*
D15*
X51576Y12504D03*
D16*
X48304Y12504D02*
X43524Y17285D01*
X48304Y12504D02*
X51576Y12504D01*
X82330Y38031D02*
X68534Y51827D01*
X68534Y62146D02*
X66272Y64408D01*
X68534Y62146D02*
X68534Y51827D01*
D15*
X81718Y38031D03*
D16*
X82330Y38031D01*
X82330Y44914D01*
X507844Y290257D01*
X507844Y290257D01*
X507714Y290257D01*
X37524Y18218D02*
X35238Y20505D01*
X77762Y29537D02*
X78176Y29950D01*
X77762Y29537D02*
X77762Y23298D01*
X79762Y21298D01*
X74762Y26462D02*
X74762Y39934D01*
X64272Y50424D02*
X64272Y53008D01*
X64272Y50424D02*
X74762Y39934D01*
X74762Y26462D02*
X55123Y6823D01*
X55123Y-485000D01*
X71476Y17528D02*
X71476Y18346D01*
X71476Y17528D02*
X60123Y6176D01*
X60123Y-485000D01*
X88048Y24250D02*
X88048Y42727D01*
X510005Y285927D02*
X510214Y285927D01*
X510005Y285927D02*
X88048Y42727D01*
D15*
X41670Y49000D03*
D16*
X36670Y44000D01*
X36670Y29977D01*
X36824Y29822D01*
D15*
X78000Y50000D03*
D16*
X81739Y50000D01*
X506005Y294953D01*
X505639Y294587D01*
X505214Y294587D01*
X50123Y5286D02*
X42891Y12518D01*
X33652Y12518D01*
X50123Y5286D02*
X50123Y-485000D01*
X72000Y55000D02*
X72000Y64542D01*
X54134Y67670D02*
X50872Y64408D01*
X54134Y67670D02*
X68872Y67670D01*
X72000Y64542D01*
X72000Y55000D02*
X80322Y55000D01*
X502599Y298802D02*
X502714Y298917D01*
X502599Y298802D02*
X80322Y55000D01*
M02*
