G04 EAGLE Gerber RS-274X export*
G75*
%MOMM*%
%FSLAX34Y34*%
%LPD*%
%INSolderpaste Top*%
%IPPOS*%
%AMOC8*
5,1,8,0,0,1.08239X$1,22.5*%
G01*
G04 Define Apertures*
%ADD10R,0.400000X0.200000*%
%ADD11R,0.560000X0.560000*%
%ADD12R,0.560000X0.560000*%
%ADD13R,3.000000X0.300000*%
%ADD14R,0.300000X3.000000*%
D10*
X64272Y53008D03*
X64272Y64408D03*
X50872Y53008D03*
X50872Y64408D03*
D11*
X57572Y58708D03*
D10*
G36*
X33519Y14750D02*
X35518Y11286D01*
X33785Y10286D01*
X31786Y13750D01*
X33519Y14750D01*
G37*
G36*
X43391Y20450D02*
X45390Y16986D01*
X43657Y15986D01*
X41658Y19450D01*
X43391Y20450D01*
G37*
G36*
X26819Y26354D02*
X28818Y22890D01*
X27085Y21890D01*
X25086Y25354D01*
X26819Y26354D01*
G37*
G36*
X36691Y32054D02*
X38690Y28590D01*
X36957Y27590D01*
X34958Y31054D01*
X36691Y32054D01*
G37*
D12*
G36*
X39062Y20146D02*
X34214Y17346D01*
X31414Y22194D01*
X36262Y24994D01*
X39062Y20146D01*
G37*
D10*
G36*
X86182Y23018D02*
X88181Y26482D01*
X89914Y25482D01*
X87915Y22018D01*
X86182Y23018D01*
G37*
G36*
X76310Y28718D02*
X78309Y32182D01*
X80042Y31182D01*
X78043Y27718D01*
X76310Y28718D01*
G37*
G36*
X79482Y11414D02*
X81481Y14878D01*
X83214Y13878D01*
X81215Y10414D01*
X79482Y11414D01*
G37*
G36*
X69610Y17114D02*
X71609Y20578D01*
X73342Y19578D01*
X71343Y16114D01*
X69610Y17114D01*
G37*
D12*
G36*
X78738Y25122D02*
X83586Y22322D01*
X80786Y17474D01*
X75938Y20274D01*
X78738Y25122D01*
G37*
D13*
G36*
X516454Y305117D02*
X490474Y290118D01*
X488974Y292717D01*
X514954Y307716D01*
X516454Y305117D01*
G37*
G36*
X518954Y300787D02*
X492974Y285788D01*
X491474Y288387D01*
X517454Y303386D01*
X518954Y300787D01*
G37*
G36*
X521454Y296457D02*
X495474Y281458D01*
X493974Y284057D01*
X519954Y299056D01*
X521454Y296457D01*
G37*
G36*
X523954Y292127D02*
X497974Y277128D01*
X496474Y279727D01*
X522454Y294726D01*
X523954Y292127D01*
G37*
D14*
X65123Y-485000D03*
X60123Y-485000D03*
X55123Y-485000D03*
X50123Y-485000D03*
M02*
