G04 EAGLE Gerber RS-274X export*
G75*
%MOMM*%
%FSLAX34Y34*%
%LPD*%
%IN*%
%IPPOS*%
%AMOC8*
5,1,8,0,0,1.08239X$1,22.5*%
G01*
G04 Define Apertures*
%ADD10C,0.254000*%
D10*
X10377Y18000D02*
X9893Y17071D01*
X9493Y16104D01*
X9178Y15106D01*
X8951Y14084D01*
X8814Y13046D01*
X8769Y12000D01*
X8814Y10954D01*
X8951Y9916D01*
X9178Y8894D01*
X9493Y7896D01*
X9893Y6929D01*
X10377Y6000D01*
X10939Y5117D01*
X11576Y4287D01*
X12284Y3515D01*
X13055Y2808D01*
X13886Y2170D01*
X14769Y1608D01*
X15697Y1124D01*
X16665Y724D01*
X17663Y409D01*
X18685Y182D01*
X19723Y46D01*
X20769Y0D01*
X35124Y0D01*
X35996Y-38D01*
X36860Y-152D01*
X37712Y-341D01*
X38544Y-603D01*
X39350Y-937D01*
X40124Y-1340D01*
X40860Y-1808D01*
X41552Y-2340D01*
X42195Y-2929D01*
X42784Y-3572D01*
X43316Y-4264D01*
X43784Y-5000D01*
X44187Y-5774D01*
X44521Y-6580D01*
X44783Y-7412D01*
X44972Y-8264D01*
X45086Y-9128D01*
X45124Y-10000D01*
X45123Y-500000D01*
X70123Y-500000D01*
X70124Y-10000D01*
X70162Y-9129D01*
X70276Y-8264D01*
X70465Y-7412D01*
X70727Y-6580D01*
X71061Y-5774D01*
X71464Y-5000D01*
X71932Y-4264D01*
X72464Y-3572D01*
X73053Y-2929D01*
X73696Y-2340D01*
X74388Y-1809D01*
X75124Y-1340D01*
X75898Y-937D01*
X76704Y-603D01*
X77536Y-341D01*
X78388Y-152D01*
X79252Y-38D01*
X80124Y0D01*
X94479Y0D01*
X95525Y46D01*
X96563Y182D01*
X97585Y409D01*
X98583Y724D01*
X99551Y1124D01*
X100479Y1608D01*
X101362Y2170D01*
X102193Y2807D01*
X102964Y3515D01*
X103672Y4287D01*
X104309Y5117D01*
X104871Y6000D01*
X105355Y6929D01*
X105755Y7896D01*
X106070Y8894D01*
X106297Y9916D01*
X106433Y10954D01*
X106479Y12000D01*
X106433Y13046D01*
X106297Y14084D01*
X106070Y15106D01*
X105755Y16104D01*
X105355Y17071D01*
X104871Y18000D01*
X97694Y30432D01*
X97291Y31206D01*
X96957Y32012D01*
X96695Y32844D01*
X96506Y33695D01*
X96392Y34560D01*
X96354Y35432D01*
X96392Y36303D01*
X96506Y37168D01*
X96695Y38020D01*
X96957Y38852D01*
X97291Y39658D01*
X97694Y40432D01*
X98163Y41168D01*
X98694Y41860D01*
X99283Y42503D01*
X99926Y43092D01*
X100618Y43623D01*
X101354Y44092D01*
X525707Y289092D01*
X513207Y310743D01*
X88854Y65743D01*
X88080Y65340D01*
X87274Y65006D01*
X86442Y64744D01*
X85591Y64555D01*
X84726Y64441D01*
X83854Y64403D01*
X82983Y64441D01*
X82118Y64555D01*
X81266Y64744D01*
X80434Y65006D01*
X79628Y65340D01*
X78854Y65743D01*
X78118Y66212D01*
X77426Y66743D01*
X76783Y67332D01*
X76194Y67975D01*
X75663Y68667D01*
X75194Y69403D01*
X68016Y81835D01*
X67454Y82718D01*
X66817Y83548D01*
X66109Y84320D01*
X65337Y85028D01*
X64507Y85665D01*
X63624Y86227D01*
X62695Y86711D01*
X61728Y87111D01*
X60730Y87426D01*
X59708Y87653D01*
X58670Y87789D01*
X57624Y87835D01*
X56578Y87789D01*
X55540Y87653D01*
X54518Y87426D01*
X53520Y87111D01*
X52553Y86711D01*
X51624Y86227D01*
X50741Y85665D01*
X49911Y85028D01*
X49139Y84320D01*
X48431Y83548D01*
X47794Y82718D01*
X47232Y81835D01*
X10377Y18000D01*
M02*
