G04 EAGLE Gerber RS-274X export*
G75*
%MOMM*%
%FSLAX34Y34*%
%LPD*%
%INSoldermask Top*%
%IPPOS*%
%AMOC8*
5,1,8,0,0,1.08239X$1,22.5*%
G01*
G04 Define Apertures*
%ADD10C,3.127000*%
%ADD11C,1.327000*%
%ADD12R,0.527000X0.327000*%
%ADD13R,0.687000X0.687000*%
%ADD14R,0.687000X0.687000*%
%ADD15R,3.127000X0.427000*%
%ADD16R,0.427000X3.127000*%
%ADD17C,0.731000*%
D10*
X57621Y33301D03*
D11*
X94463Y12029D03*
X57615Y75819D03*
X20773Y12007D03*
D12*
X64272Y53008D03*
X64272Y64408D03*
X50872Y53008D03*
X50872Y64408D03*
D13*
X57572Y58708D03*
D12*
G36*
X33750Y15617D02*
X36385Y11054D01*
X33554Y9419D01*
X30919Y13982D01*
X33750Y15617D01*
G37*
G36*
X43622Y21317D02*
X46257Y16754D01*
X43426Y15119D01*
X40791Y19682D01*
X43622Y21317D01*
G37*
G36*
X27050Y27221D02*
X29685Y22658D01*
X26854Y21023D01*
X24219Y25586D01*
X27050Y27221D01*
G37*
G36*
X36922Y32921D02*
X39557Y28358D01*
X36726Y26723D01*
X34091Y31286D01*
X36922Y32921D01*
G37*
D14*
G36*
X39930Y19913D02*
X33981Y16478D01*
X30546Y22427D01*
X36495Y25862D01*
X39930Y19913D01*
G37*
D12*
G36*
X85315Y22786D02*
X87950Y27349D01*
X90781Y25714D01*
X88146Y21151D01*
X85315Y22786D01*
G37*
G36*
X75443Y28486D02*
X78078Y33049D01*
X80909Y31414D01*
X78274Y26851D01*
X75443Y28486D01*
G37*
G36*
X78615Y11182D02*
X81250Y15745D01*
X84081Y14110D01*
X81446Y9547D01*
X78615Y11182D01*
G37*
G36*
X68743Y16882D02*
X71378Y21445D01*
X74209Y19810D01*
X71574Y15247D01*
X68743Y16882D01*
G37*
D14*
G36*
X78505Y25990D02*
X84454Y22555D01*
X81019Y16606D01*
X75070Y20041D01*
X78505Y25990D01*
G37*
D15*
G36*
X517321Y304885D02*
X490242Y289251D01*
X488107Y292949D01*
X515186Y308583D01*
X517321Y304885D01*
G37*
G36*
X519821Y300555D02*
X492742Y284921D01*
X490607Y288619D01*
X517686Y304253D01*
X519821Y300555D01*
G37*
G36*
X522321Y296225D02*
X495242Y280591D01*
X493107Y284289D01*
X520186Y299923D01*
X522321Y296225D01*
G37*
G36*
X524821Y291895D02*
X497742Y276261D01*
X495607Y279959D01*
X522686Y295593D01*
X524821Y291895D01*
G37*
D16*
X65123Y-485000D03*
X60123Y-485000D03*
X55123Y-485000D03*
X50123Y-485000D03*
D17*
X31400Y35625D03*
X67920Y7917D03*
X51576Y12504D03*
X81718Y38031D03*
X41670Y49000D03*
X78000Y50000D03*
M02*
